<?xml version="1.0" encoding="UTF-8"?>
<svg version="1.1" xmlns="http://www.w3.org/2000/svg" width="252" height="256">
<path d="M0 0 C83.16 0 166.32 0 252 0 C252 84.48 252 168.96 252 256 C168.84 256 85.68 256 0 256 C0 171.52 0 87.04 0 0 Z " fill="#000000" transform="translate(0,0)"/>
<path d="M0 0 C0.79063843 -0.00040283 1.58127686 -0.00080566 2.39587402 -0.0012207 C22.48008986 0.05754952 40.24614616 3.07141234 57.6875 13.4375 C58.55375 13.9428125 59.42 14.448125 60.3125 14.96875 C62.53783729 16.3595858 64.61031352 17.83453911 66.6875 19.4375 C67.49445313 20.05753906 68.30140625 20.67757812 69.1328125 21.31640625 C84.85306744 34.36854452 91.91228854 53.69034838 94.6875 73.4375 C94.79037193 76.10283394 94.85130685 78.74128022 94.85546875 81.40625 C94.85879715 82.1636145 94.86212555 82.920979 94.86555481 83.70129395 C94.87059888 85.30150755 94.87296392 86.90173158 94.87280273 88.50195312 C94.87496845 90.90252988 94.89309311 93.30263062 94.91210938 95.703125 C95.00619846 121.37335016 90.09699802 146.89579506 72.015625 166.25390625 C48.05287705 188.72903394 16.9454899 190.40144922 -14.13769531 189.61669922 C-21.89566071 189.34271741 -28.98242764 187.93515429 -36.3125 185.4375 C-36.9636377 185.22319336 -37.61477539 185.00888672 -38.28564453 184.78808594 C-59.27161843 177.74663829 -73.20782288 164.32567081 -83.55078125 145.140625 C-89.67201648 132.56727697 -91.42852581 118.63176058 -91.55078125 104.8203125 C-91.558853 103.92367889 -91.56692474 103.02704529 -91.57524109 102.10324097 C-91.58898948 100.21240109 -91.59975238 98.32153736 -91.60766602 96.43066406 C-91.61911426 94.53638192 -91.63945064 92.64213017 -91.66918945 90.74804688 C-92.02084661 68.25770549 -88.98614888 45.83635145 -73.3125 28.4375 C-72.60738281 27.64085938 -71.90226562 26.84421875 -71.17578125 26.0234375 C-61.92476832 16.16164916 -50.89924476 10.09530668 -38.3125 5.4375 C-37.54421875 5.14101563 -36.7759375 4.84453125 -35.984375 4.5390625 C-24.35713371 0.314777 -12.23064389 -0.00639444 0 0 Z " fill="#FCFCFC" transform="translate(123.3125,38.5625)"/>
<path d="M0 0 C19.2748867 0 36.41311772 4.18101222 50.703125 17.5390625 C54.23654911 21.32487404 56.71625225 25.37180689 59 30 C59.47373047 30.93199219 59.47373047 30.93199219 59.95703125 31.8828125 C64.73677927 42.76085973 64.36467763 56.5658516 64.3125 68.1875 C64.31001251 68.85610046 64.30752502 69.52470093 64.30496216 70.21356201 C64.1875976 90.7264481 62.99865061 108.51278853 48.1484375 124.07421875 C34.70279034 136.12640793 17.37748381 139 0 139 C0 93.13 0 47.26 0 0 Z " fill="#020202" transform="translate(124,64)"/>
<path d="M0 0 C0 41.91 0 83.82 0 127 C-10.21812226 124.95637555 -17.70519995 117.58324006 -23.9140625 109.51171875 C-37.26483379 88.51976134 -35.26677346 55.03137856 -30.2578125 31.515625 C-26.57659287 17.63775278 -17.81499418 8.12872389 -5.5625 1 C-3 0 -3 0 0 0 Z " fill="#020202" transform="translate(94,70)"/>
<path d="M0 0 C7.87509402 1.5750188 13.2057325 5.12469978 17.74609375 11.79296875 C23.16876102 21.33753887 23.58031659 33.87711536 21.25 44.5 C17.8874272 53.91520383 14.04207513 60.19279188 5.12109375 65.08203125 C3 66 3 66 0 66 C0 44.22 0 22.44 0 0 Z " fill="#F5F5F5" transform="translate(149,102)"/>
</svg>
