<svg width="173" height="173" viewBox="0 0 173 173" fill="none" xmlns="http://www.w3.org/2000/svg">
<path opacity="0.92" d="M80.6257 64.2229C88.4706 69.7434 97.4148 73.5399 106.835 75.3481C109.275 75.8177 110.397 78.5948 108.968 80.6273C103.448 88.4722 99.6512 97.4164 97.8429 106.837C97.3734 109.277 94.5961 110.399 92.5637 108.97C84.7187 103.449 75.7747 99.6529 66.3541 97.8446C63.9145 97.3751 62.7924 94.5979 64.2212 92.5654C69.7417 84.7205 73.5381 75.7765 75.3464 66.3558C75.816 63.9162 78.5932 62.7941 80.6257 64.2229ZM51.8851 0.699809L59.5796 44.8806C63.0372 64.7547 54.524 84.8106 37.826 96.1291L0.699829 121.285L44.8807 113.59C64.7548 110.133 84.8106 118.646 96.1292 135.344L121.285 172.47L113.59 128.289C110.132 108.415 118.646 88.3591 135.344 77.0406L172.47 51.8851L128.289 59.5796C108.415 63.0372 88.359 54.524 77.0405 37.8259L51.8851 0.699809Z" fill="#F38218"/>
</svg>
